<?xml version="1.0" encoding="UTF-8"?>
<!DOCTYPE svg PUBLIC "-//W3C//DTD SVG 1.1//EN" "http://www.w3.org/Graphics/SVG/1.1/DTD/svg11.dtd">
<!-- Creator: CorelDRAW -->
<svg xmlns="http://www.w3.org/2000/svg" xml:space="preserve" width="149.495mm" height="43.7272mm" version="1.1" style="shape-rendering:geometricPrecision; text-rendering:geometricPrecision; image-rendering:optimizeQuality; fill-rule:evenodd; clip-rule:evenodd"
viewBox="0 0 4100.89 1199.5"
 xmlns:xlink="http://www.w3.org/1999/xlink"
 xmlns:xodm="http://www.corel.com/coreldraw/odm/2003">
 <defs>
  <style type="text/css">
   <![CDATA[
    .fil0 {fill:white}
   ]]>
  </style>
 </defs>
 <g id="Layer_x0020_1">
  <metadata id="CorelCorpID_0Corel-Layer"/>
  <g id="_2162924337104">
   <path class="fil0" d="M624.83 532.7c-5.37,167.86 -143.17,302.37 -312.3,302.37 -172.6,0 -312.53,-139.93 -312.53,-312.53 0,-172.56 139.93,-312.48 312.53,-312.48 84.38,0 160.94,33.49 217.16,87.8l0 -250.11c0,-26.33 21.37,-47.71 47.71,-47.71 26.33,0 47.71,21.37 47.71,47.71 0.05,0 -0.23,444.58 -0.23,484.95l-0.05 0.01zm271.66 29.89c18.82,100.92 107.35,177.38 213.74,177.38 61.83,0 117.65,-25.83 157.2,-67.25 41.78,-43.75 111.45,21.46 69.36,65.65 -56.96,59.78 -137.38,97.1 -226.5,97.1 -172.79,0 -312.89,-140.11 -312.89,-312.89 0,-172.79 140.11,-312.89 312.89,-312.89 153.55,0 281.27,110.63 307.79,256.53 2.23,12.26 3.46,24.29 4.19,36.31 0.91,16.22 -4.28,30.48 -15.45,42.29 -11.16,11.8 -25.11,17.82 -41.33,17.82l-468.95 0 -0.05 -0.05zm3.46 -95.41l420.57 0c-24.52,-93.22 -109.36,-162.03 -210.28,-162.03 -100.92,0 -185.81,68.81 -210.28,162.03zm677.1 58.69c0,-174.2 142.35,-316.54 316.54,-316.54 26.29,0 47.71,21.41 47.71,47.71 0,26.29 -21.41,47.71 -47.71,47.71 -121.52,0 -221.13,99.6 -221.13,221.13l0 261.45c0,26.29 -21.41,47.71 -47.71,47.71 -26.29,0 -47.71,-21.41 -47.71,-47.71 0,0 0,-239.67 0,-261.45zm654.27 -221.13c-46.66,0 -85.02,38.32 -85.02,85.02 0,46.66 38.32,85.02 85.02,85.02l153.92 0c99.33,0 180.44,81.1 180.44,180.44 0,99.33 -81.1,180.44 -180.44,180.44l-269.38 0c-26.29,0 -47.71,-21.41 -47.71,-47.71 0,-26.29 21.41,-47.71 47.71,-47.71l269.38 0c46.66,0 85.02,-38.32 85.02,-85.02 0,-46.66 -38.32,-85.02 -85.02,-85.02l-153.92 0c-99.33,0 -180.44,-81.1 -180.44,-180.49 0,-99.33 81.1,-180.44 180.44,-180.44l269.38 0c26.29,0 47.71,21.41 47.71,47.71 0,26.29 -21.42,47.71 -47.71,47.71 0,0 -246.96,0 -269.38,0l0 0.05zm512.92 289.48l0 -546.51c0,-26.29 21.41,-47.71 47.71,-47.71 26.29,0 47.71,21.46 47.71,47.71l0 546.51c0,76.51 60.14,140.75 136.42,145.76 26.2,1.73 46.2,24.52 44.52,50.71 -1.73,26.25 -24.52,46.2 -50.76,44.52 -126.44,-8.29 -225.64,-114.27 -225.64,-240.99l0.04 0zm488.91 -384.89c26.25,0 47.71,21.46 47.71,47.71l0 530.92c0,26.25 -21.46,47.71 -47.71,47.71 -26.25,0 -47.71,-21.46 -47.71,-47.71l0 -530.92c0,-26.25 21.46,-47.71 47.71,-47.71zm0 -209.33c36.41,0 65.93,29.53 65.93,65.93 0,36.4 -29.53,65.93 -65.93,65.93 -36.4,0 -65.93,-29.53 -65.93,-65.93 0,-36.4 29.53,-65.93 65.93,-65.93zm555.08 209.88c172.24,0 311.85,139.2 312.62,311.25l0.05 361.83c0,174.2 -142.35,316.54 -316.54,316.54 -26.29,0 -47.71,-21.41 -47.71,-47.71 0,-26.29 21.41,-47.71 47.71,-47.71 121.52,0 221.08,-99.6 221.08,-221.13l0 -135.56c-56.22,54.36 -132.82,87.8 -217.21,87.8 -172.69,0 -312.67,-139.98 -312.67,-312.67 0,-172.69 139.97,-312.67 312.67,-312.67l0 0.01zm0 95c120.2,0 217.66,97.47 217.66,217.66 0,120.2 -97.46,217.66 -217.66,217.66 -120.2,0 -217.66,-97.46 -217.66,-217.66 0,-120.2 97.46,-217.66 217.66,-217.66zm-3475.73 0.23c120.07,0 217.44,97.32 217.44,217.44 0,120.07 -97.33,217.44 -217.44,217.44 -120.06,0 -217.39,-97.33 -217.39,-217.44 0,-120.07 97.33,-217.44 217.39,-217.44z"/>
  </g>
 </g>
</svg>
